<?xml version="1.0" encoding="UTF-8"?> <svg xmlns="http://www.w3.org/2000/svg" id="Слой_1" data-name="Слой 1" viewBox="0 0 380 260"> <defs> <style>.cls-1{fill:#007163;}.cls-2{fill:#e0d6c4;}.cls-3{fill:#f6f3ee;}.cls-10,.cls-4,.cls-9{fill:none;}.cls-4,.cls-9{stroke:#1d1d1b;}.cls-4{stroke-miterlimit:10;stroke-width:0.4px;}.cls-5{fill:#fff;}.cls-6{fill:#1d1d1b;}.cls-7{fill:#5ea29a;}.cls-8{fill:#b3cfcb;}.cls-9{stroke-width:0.5px;}.cls-10{stroke:#007163;stroke-width:1.5px;}</style> </defs> <path class="cls-1" d="M296.3,10.59h70.87v15H296.3Zm-65.2,0h65.2v15H231.1Zm-65.19,0H231.1v15H165.91Zm-65.2,0h65.2v15h-65.2Zm-70.87,0h70.87v15H29.84Zm-17,0h17v15h-17Z"></path> <path class="cls-2" d="M12.83,204.19h17v42.52h-17Zm0-42.52h17v42.52h-17Zm0-51h17v51h-17Zm0-42.51h17v42.52h-17Zm0-42.52h17V68.13h-17Z"></path> <path class="cls-3" d="M231.1,204.19h65.2v42.52H231.1Zm-65.19,0H231.1v42.52H165.91Zm-65.2,0h65.2v42.52h-65.2Zm-70.87,0h70.87v42.52H29.84ZM296.3,161.67h70.87v42.52H296.3Zm-195.59,0h65.2v42.52h-65.2Zm-70.87,0h70.87v42.52H29.84Zm266.46-51h70.87v51H296.3Zm-195.59,0h65.2v51h-65.2Zm-70.87,0h70.87v51H29.84ZM231.1,68.13h65.2v42.52H231.1Zm-65.19,0H231.1v42.52H165.91Zm-136.07,0h70.87v42.52H29.84ZM296.3,25.61h70.87V68.13H296.3Zm-65.2,0h65.2V68.13H231.1Zm-65.19,0H231.1V68.13H165.91Zm-65.2,0h65.2V68.13h-65.2Z"></path> <line class="cls-4" x1="12.63" y1="10.59" x2="29.84" y2="10.59"></line> <line class="cls-4" x1="12.83" y1="25.41" x2="12.83" y2="10.79"></line> <line class="cls-4" x1="29.84" y1="10.59" x2="100.71" y2="10.59"></line> <line class="cls-4" x1="29.84" y1="25.41" x2="29.84" y2="10.79"></line> <line class="cls-4" x1="100.71" y1="10.59" x2="165.91" y2="10.59"></line> <line class="cls-4" x1="100.71" y1="25.41" x2="100.71" y2="10.79"></line> <line class="cls-4" x1="165.91" y1="10.59" x2="231.1" y2="10.59"></line> <line class="cls-4" x1="165.91" y1="25.41" x2="165.91" y2="10.79"></line> <line class="cls-4" x1="231.1" y1="10.59" x2="296.3" y2="10.59"></line> <line class="cls-4" x1="231.1" y1="25.41" x2="231.1" y2="10.79"></line> <line class="cls-4" x1="296.3" y1="10.59" x2="367.37" y2="10.59"></line> <line class="cls-4" x1="296.3" y1="25.41" x2="296.3" y2="10.79"></line> <line class="cls-4" x1="367.17" y1="25.41" x2="367.17" y2="10.79"></line> <line class="cls-4" x1="12.63" y1="25.61" x2="29.84" y2="25.61"></line> <line class="cls-4" x1="12.83" y1="67.93" x2="12.83" y2="25.81"></line> <line class="cls-4" x1="29.84" y1="25.61" x2="100.71" y2="25.61"></line> <line class="cls-4" x1="29.84" y1="67.93" x2="29.84" y2="25.81"></line> <line class="cls-4" x1="100.71" y1="25.61" x2="165.91" y2="25.61"></line> <line class="cls-4" x1="100.71" y1="67.93" x2="100.71" y2="25.81"></line> <line class="cls-4" x1="165.91" y1="25.61" x2="231.1" y2="25.61"></line> <line class="cls-4" x1="165.91" y1="67.93" x2="165.91" y2="25.81"></line> <line class="cls-4" x1="231.1" y1="25.61" x2="296.3" y2="25.61"></line> <line class="cls-4" x1="231.1" y1="67.93" x2="231.1" y2="25.81"></line> <line class="cls-4" x1="296.3" y1="25.61" x2="367.37" y2="25.61"></line> <line class="cls-4" x1="296.3" y1="67.93" x2="296.3" y2="25.81"></line> <line class="cls-4" x1="367.17" y1="67.93" x2="367.17" y2="25.81"></line> <line class="cls-4" x1="12.63" y1="68.13" x2="29.84" y2="68.13"></line> <line class="cls-4" x1="12.83" y1="110.45" x2="12.83" y2="68.33"></line> <line class="cls-4" x1="100.71" y1="68.13" x2="165.91" y2="68.13"></line> <line class="cls-4" x1="296.3" y1="68.13" x2="367.37" y2="68.13"></line> <line class="cls-4" x1="367.17" y1="110.45" x2="367.17" y2="68.33"></line> <line class="cls-4" x1="12.63" y1="110.65" x2="29.84" y2="110.65"></line> <line class="cls-4" x1="12.83" y1="161.47" x2="12.83" y2="110.84"></line> <line class="cls-4" x1="231.1" y1="161.47" x2="231.1" y2="110.84"></line> <line class="cls-4" x1="12.63" y1="161.67" x2="29.84" y2="161.67"></line> <line class="cls-4" x1="12.83" y1="203.99" x2="12.83" y2="161.87"></line> <line class="cls-4" x1="165.91" y1="161.67" x2="231.1" y2="161.67"></line> <line class="cls-4" x1="231.1" y1="161.67" x2="296.3" y2="161.67"></line> <line class="cls-4" x1="231.1" y1="203.99" x2="231.1" y2="161.87"></line> <line class="cls-4" x1="12.63" y1="204.19" x2="29.84" y2="204.19"></line> <line class="cls-4" x1="12.83" y1="246.51" x2="12.83" y2="204.39"></line> <line class="cls-4" x1="367.17" y1="246.51" x2="367.17" y2="204.39"></line> <line class="cls-4" x1="12.63" y1="246.71" x2="29.84" y2="246.71"></line> <line class="cls-4" x1="296.3" y1="246.71" x2="367.37" y2="246.71"></line> <line class="cls-4" x1="29.84" y1="68.13" x2="100.71" y2="68.13"></line> <line class="cls-4" x1="29.84" y1="110.45" x2="29.84" y2="68.33"></line> <line class="cls-4" x1="100.71" y1="110.45" x2="100.71" y2="68.33"></line> <line class="cls-4" x1="29.84" y1="110.65" x2="100.71" y2="110.65"></line> <line class="cls-4" x1="29.84" y1="161.47" x2="29.84" y2="110.84"></line> <line class="cls-4" x1="29.84" y1="161.67" x2="100.71" y2="161.67"></line> <line class="cls-4" x1="29.84" y1="203.99" x2="29.84" y2="161.87"></line> <line class="cls-4" x1="29.84" y1="204.19" x2="100.71" y2="204.19"></line> <line class="cls-4" x1="29.84" y1="246.51" x2="29.84" y2="204.39"></line> <line class="cls-4" x1="29.84" y1="246.71" x2="100.71" y2="246.71"></line> <line class="cls-4" x1="100.71" y1="110.65" x2="165.91" y2="110.65"></line> <line class="cls-4" x1="100.71" y1="161.47" x2="100.71" y2="110.84"></line> <line class="cls-4" x1="165.91" y1="161.47" x2="165.91" y2="110.84"></line> <line class="cls-4" x1="100.71" y1="161.67" x2="165.91" y2="161.67"></line> <line class="cls-4" x1="100.71" y1="203.99" x2="100.71" y2="161.87"></line> <line class="cls-4" x1="165.91" y1="203.99" x2="165.91" y2="161.87"></line> <line class="cls-4" x1="100.71" y1="204.19" x2="165.91" y2="204.19"></line> <line class="cls-4" x1="100.71" y1="246.51" x2="100.71" y2="204.39"></line> <line class="cls-4" x1="100.71" y1="246.71" x2="165.91" y2="246.71"></line> <line class="cls-4" x1="165.91" y1="68.13" x2="231.1" y2="68.13"></line> <line class="cls-4" x1="165.91" y1="110.45" x2="165.91" y2="68.33"></line> <line class="cls-4" x1="165.91" y1="110.65" x2="231.1" y2="110.65"></line> <line class="cls-4" x1="231.1" y1="68.13" x2="296.3" y2="68.13"></line> <line class="cls-4" x1="231.1" y1="110.45" x2="231.1" y2="68.33"></line> <line class="cls-4" x1="296.3" y1="110.45" x2="296.3" y2="68.33"></line> <line class="cls-4" x1="231.1" y1="110.65" x2="296.3" y2="110.65"></line> <line class="cls-4" x1="296.3" y1="110.65" x2="367.37" y2="110.65"></line> <line class="cls-4" x1="296.3" y1="161.47" x2="296.3" y2="110.84"></line> <line class="cls-4" x1="367.17" y1="161.47" x2="367.17" y2="110.84"></line> <line class="cls-4" x1="296.3" y1="161.67" x2="367.37" y2="161.67"></line> <line class="cls-4" x1="296.3" y1="203.99" x2="296.3" y2="161.87"></line> <line class="cls-4" x1="367.17" y1="203.99" x2="367.17" y2="161.87"></line> <line class="cls-4" x1="296.3" y1="204.19" x2="367.37" y2="204.19"></line> <line class="cls-4" x1="165.91" y1="204.19" x2="231.1" y2="204.19"></line> <line class="cls-4" x1="165.91" y1="246.51" x2="165.91" y2="204.39"></line> <line class="cls-4" x1="165.91" y1="246.71" x2="231.1" y2="246.71"></line> <line class="cls-4" x1="231.1" y1="204.19" x2="296.3" y2="204.19"></line> <line class="cls-4" x1="231.1" y1="246.51" x2="231.1" y2="204.39"></line> <line class="cls-4" x1="296.3" y1="246.51" x2="296.3" y2="204.39"></line> <line class="cls-4" x1="231.1" y1="246.71" x2="296.3" y2="246.71"></line> <path class="cls-5" d="M35.15,15.79h4.16V21H38.17V16.8H36.28V21H35.15Z"></path> <path class="cls-5" d="M41.93,21.11a2,2,0,0,1-.77-.14,1.61,1.61,0,0,1-.58-.41,1.92,1.92,0,0,1-.37-.66,2.82,2.82,0,0,1-.12-.85,2.88,2.88,0,0,1,.12-.86,2,2,0,0,1,.37-.65,1.59,1.59,0,0,1,.58-.4,1.86,1.86,0,0,1,.77-.15,1.94,1.94,0,0,1,.78.15,1.59,1.59,0,0,1,.58.4,2.14,2.14,0,0,1,.36.65,2.88,2.88,0,0,1,.13.86,2.81,2.81,0,0,1-.13.85,2.08,2.08,0,0,1-.36.66,1.61,1.61,0,0,1-.58.41A2.13,2.13,0,0,1,41.93,21.11Zm0-.88a.63.63,0,0,0,.51-.2.84.84,0,0,0,.18-.58v-.8a.86.86,0,0,0-.18-.58.75.75,0,0,0-1,0,.86.86,0,0,0-.18.58v.8a.84.84,0,0,0,.18.58A.63.63,0,0,0,41.93,20.23Z"></path> <path class="cls-5" d="M44.5,17.08h1.11v1.51h.57l.51-1a1.28,1.28,0,0,1,.36-.42,1,1,0,0,1,.51-.13H48V18h-.39l-.34.63a.79.79,0,0,1-.21.27.51.51,0,0,1-.23.12v0a.7.7,0,0,1,.23.11.71.71,0,0,1,.2.24l.44.8h.41V21h-.52a.88.88,0,0,1-.51-.13,1.25,1.25,0,0,1-.37-.43l-.55-1h-.57V21H44.5Z"></path> <path class="cls-5" d="M50.37,21.11a2.13,2.13,0,0,1-.78-.14,1.57,1.57,0,0,1-.57-.41,1.92,1.92,0,0,1-.37-.66,2.81,2.81,0,0,1-.13-.85,2.88,2.88,0,0,1,.13-.86,2,2,0,0,1,.37-.65,1.55,1.55,0,0,1,.57-.4,2.1,2.1,0,0,1,1.56,0,1.55,1.55,0,0,1,.57.4,2,2,0,0,1,.37.65,2.88,2.88,0,0,1,.12.86,2.82,2.82,0,0,1-.12.85,1.92,1.92,0,0,1-.37.66,1.57,1.57,0,0,1-.57.41A2.13,2.13,0,0,1,50.37,21.11Zm0-.88a.63.63,0,0,0,.51-.2.84.84,0,0,0,.18-.58v-.8a.86.86,0,0,0-.18-.58.75.75,0,0,0-1,0,.86.86,0,0,0-.18.58v.8a.84.84,0,0,0,.18.58A.63.63,0,0,0,50.37,20.23Z"></path> <path class="cls-5" d="M52.93,17.08h1.2l1,1.62h0l1-1.62h1.2V21H56.26V18.46h0l-.3.55-.8,1.31L54.34,19l-.3-.55h0V21H52.93Z"></path> <path class="cls-5" d="M58.31,17.08h3.44V21h-1.1V18H59.42V21H58.31Z"></path> <path class="cls-5" d="M64.32,21.11a2.13,2.13,0,0,1-.78-.14,1.57,1.57,0,0,1-.57-.41,1.92,1.92,0,0,1-.37-.66,2.81,2.81,0,0,1-.13-.85,2.88,2.88,0,0,1,.13-.86,2,2,0,0,1,.37-.65,1.55,1.55,0,0,1,.57-.4,2.1,2.1,0,0,1,1.56,0,1.55,1.55,0,0,1,.57.4,2,2,0,0,1,.37.65,2.88,2.88,0,0,1,.12.86,2.82,2.82,0,0,1-.12.85,1.92,1.92,0,0,1-.37.66,1.57,1.57,0,0,1-.57.41A2.13,2.13,0,0,1,64.32,21.11Zm0-.88a.63.63,0,0,0,.51-.2.84.84,0,0,0,.18-.58v-.8a.86.86,0,0,0-.18-.58.75.75,0,0,0-1,0,.86.86,0,0,0-.18.58v.8a.84.84,0,0,0,.18.58A.63.63,0,0,0,64.32,20.23Z"></path> <path class="cls-5" d="M66.88,17.08H68v1.51h1.34V17.08h1.11V21H69.33V19.45H68V21H66.88Z"></path> <path class="cls-5" d="M73.05,21.11a2,2,0,0,1-.8-.15,1.5,1.5,0,0,1-.6-.41,1.87,1.87,0,0,1-.37-.65,2.82,2.82,0,0,1-.12-.85,2.86,2.86,0,0,1,.12-.85,1.75,1.75,0,0,1,.36-.64,1.55,1.55,0,0,1,.58-.42,2.13,2.13,0,0,1,1.62,0,1.61,1.61,0,0,1,.89,1.08,2.73,2.73,0,0,1,.1.76v.33H72.31v.06a.9.9,0,0,0,.21.62.86.86,0,0,0,.66.22,1.06,1.06,0,0,0,.56-.13,3.19,3.19,0,0,0,.4-.33l.56.69a1.85,1.85,0,0,1-.69.48A2.61,2.61,0,0,1,73.05,21.11Zm0-3.3a.68.68,0,0,0-.53.22.87.87,0,0,0-.19.59v.06h1.38v-.07a1,1,0,0,0-.16-.58A.61.61,0,0,0,73,17.81Z"></path> <path class="cls-5" d="M75.55,17.08h1.11v1.51H78V17.08h1.11V21H78V19.45H76.66V21H75.55Z"></path> <path class="cls-5" d="M80.85,18H79.71v-.87H83.1V18H82V21H80.85Z"></path> <path class="cls-5" d="M83.7,17.08h1.11v1.51h1.33V17.08h1.11V21H86.14V19.45H84.81V21H83.7Z"></path> <path class="cls-5" d="M89.82,21.11A2.13,2.13,0,0,1,89,21a1.57,1.57,0,0,1-.57-.41,1.92,1.92,0,0,1-.37-.66,2.81,2.81,0,0,1-.13-.85,2.88,2.88,0,0,1,.13-.86,2,2,0,0,1,.37-.65,1.55,1.55,0,0,1,.57-.4,2.1,2.1,0,0,1,1.56,0,1.55,1.55,0,0,1,.57.4,2,2,0,0,1,.37.65,2.88,2.88,0,0,1,.12.86,2.82,2.82,0,0,1-.12.85,1.92,1.92,0,0,1-.37.66,1.57,1.57,0,0,1-.57.41A2.13,2.13,0,0,1,89.82,21.11Zm0-.88a.63.63,0,0,0,.51-.2.84.84,0,0,0,.18-.58v-.8a.86.86,0,0,0-.18-.58.75.75,0,0,0-1,0,.86.86,0,0,0-.18.58v.8a.84.84,0,0,0,.18.58A.63.63,0,0,0,89.82,20.23Z"></path> <path class="cls-5" d="M94,21.11a2.09,2.09,0,0,1-.81-.15,1.53,1.53,0,0,1-.59-.41,1.73,1.73,0,0,1-.37-.65,2.82,2.82,0,0,1-.12-.85,2.86,2.86,0,0,1,.12-.85,1.88,1.88,0,0,1,.35-.64,1.63,1.63,0,0,1,.58-.42A2,2,0,0,1,94,17a1.93,1.93,0,0,1,.84.17,1.68,1.68,0,0,1,.57.44,1.83,1.83,0,0,1,.32.64,2.73,2.73,0,0,1,.1.76v.33H93.28v.06a.9.9,0,0,0,.21.62.86.86,0,0,0,.66.22,1.09,1.09,0,0,0,.57-.13,3.19,3.19,0,0,0,.4-.33l.56.69a1.94,1.94,0,0,1-.69.48A2.61,2.61,0,0,1,94,21.11Zm0-3.3a.66.66,0,0,0-.52.22.88.88,0,0,0-.2.59v.06h1.38v-.07A1,1,0,0,0,94.5,18,.58.58,0,0,0,94,17.81Z"></path> <path class="cls-5" d="M109.24,15.79h4.17V21h-1.14V16.8h-1.89V21h-1.14Z"></path> <path class="cls-5" d="M116.1,21.11a2.13,2.13,0,0,1-.78-.14,1.57,1.57,0,0,1-.57-.41,1.92,1.92,0,0,1-.37-.66,2.81,2.81,0,0,1-.13-.85,2.88,2.88,0,0,1,.13-.86,2,2,0,0,1,.37-.65,1.55,1.55,0,0,1,.57-.4,2.1,2.1,0,0,1,1.56,0,1.55,1.55,0,0,1,.57.4,2,2,0,0,1,.37.65,2.88,2.88,0,0,1,.12.86,2.82,2.82,0,0,1-.12.85,1.92,1.92,0,0,1-.37.66,1.57,1.57,0,0,1-.57.41A2.13,2.13,0,0,1,116.1,21.11Zm0-.88a.63.63,0,0,0,.51-.2.84.84,0,0,0,.18-.58v-.8a.86.86,0,0,0-.18-.58.75.75,0,0,0-1,0,.86.86,0,0,0-.18.58v.8a.84.84,0,0,0,.18.58A.63.63,0,0,0,116.1,20.23Z"></path> <path class="cls-5" d="M120.08,21.11a2.35,2.35,0,0,1-1-.18,2.49,2.49,0,0,1-.74-.52l.66-.67a1.36,1.36,0,0,0,1.07.49,1,1,0,0,0,.5-.11.37.37,0,0,0,.17-.32v-.08q0-.33-.45-.33h-.87v-.74h.78c.29,0,.44-.11.44-.33v-.08a.32.32,0,0,0-.15-.27.79.79,0,0,0-.45-.1,1.28,1.28,0,0,0-.56.12,1.1,1.1,0,0,0-.39.35l-.66-.6a1.92,1.92,0,0,1,.71-.55,2.32,2.32,0,0,1,1-.2,2.06,2.06,0,0,1,1.23.31.93.93,0,0,1,.41.77.81.81,0,0,1-.21.6,1,1,0,0,1-.63.27v0a1.15,1.15,0,0,1,.68.28.76.76,0,0,1,.25.6,1.06,1.06,0,0,1-.47.93A2.26,2.26,0,0,1,120.08,21.11Z"></path> <path class="cls-5" d="M122.69,17.08h1.09v1.59l-.1.91h0l.46-.84,1.1-1.66h1V21h-1.09V19.44l.1-.92h0l-.45.84L123.68,21h-1Z"></path> <path class="cls-5" d="M130.39,21h-3.11V17.08h1.11v3.08h1.22V17.08h1.11v3.08h.68v1.91h-1Z"></path> <path class="cls-5" d="M132,17.08h1.09v1.59l-.1.91h0l.46-.84,1.09-1.66h1V21H134.5V19.44l.09-.92h0l-.46.84L133,21h-1Z"></path> <path class="cls-5" d="M138.22,21.11a2.13,2.13,0,0,1-.78-.14,1.61,1.61,0,0,1-.58-.41,1.9,1.9,0,0,1-.36-.66,2.53,2.53,0,0,1-.13-.85,2.59,2.59,0,0,1,.13-.86,2,2,0,0,1,.36-.65,1.59,1.59,0,0,1,.58-.4,1.94,1.94,0,0,1,.78-.15,1.86,1.86,0,0,1,.77.15,1.59,1.59,0,0,1,.58.4,1.79,1.79,0,0,1,.36.65,2.59,2.59,0,0,1,.13.86,2.53,2.53,0,0,1-.13.85,1.75,1.75,0,0,1-.36.66A1.61,1.61,0,0,1,139,21,2,2,0,0,1,138.22,21.11Zm0-.88a.63.63,0,0,0,.51-.2.84.84,0,0,0,.18-.58v-.8a.86.86,0,0,0-.18-.58.75.75,0,0,0-1,0,.86.86,0,0,0-.18.58v.8a.84.84,0,0,0,.18.58A.63.63,0,0,0,138.22,20.23Z"></path> <path class="cls-5" d="M140.85,17.08H142v1.51h1.33V17.08h1.11V21h-1.11V19.45H142V21h-1.11Z"></path> <path class="cls-5" d="M145.44,17.08h1.11v1.51h1.33V17.08H149V21h-1.11V19.45h-1.33V21h-1.11Z"></path> <path class="cls-5" d="M151.63,21.11a2.13,2.13,0,0,1-.78-.14,1.61,1.61,0,0,1-.58-.41,1.9,1.9,0,0,1-.36-.66,2.53,2.53,0,0,1-.13-.85,2.59,2.59,0,0,1,.13-.86,2,2,0,0,1,.36-.65,1.59,1.59,0,0,1,.58-.4,1.94,1.94,0,0,1,.78-.15,1.86,1.86,0,0,1,.77.15,1.59,1.59,0,0,1,.58.4,1.79,1.79,0,0,1,.36.65,2.59,2.59,0,0,1,.13.86,2.53,2.53,0,0,1-.13.85,1.75,1.75,0,0,1-.36.66,1.61,1.61,0,0,1-.58.41A2,2,0,0,1,151.63,21.11Zm0-.88a.63.63,0,0,0,.51-.2.84.84,0,0,0,.18-.58v-.8a.86.86,0,0,0-.18-.58.75.75,0,0,0-1,0,.86.86,0,0,0-.18.58v.8a.84.84,0,0,0,.18.58A.63.63,0,0,0,151.63,20.23Z"></path> <path class="cls-5" d="M155.9,21.11a2,2,0,0,1-.8-.15,1.57,1.57,0,0,1-.6-.41,1.71,1.71,0,0,1-.36-.65,2.53,2.53,0,0,1-.13-.85,2.86,2.86,0,0,1,.12-.85,1.75,1.75,0,0,1,.36-.64,1.63,1.63,0,0,1,.58-.42,2,2,0,0,1,.79-.15,1.92,1.92,0,0,1,.83.17,1.5,1.5,0,0,1,.57.44,1.86,1.86,0,0,1,.33.64,3.17,3.17,0,0,1,.1.76v.33h-2.53v.06a.9.9,0,0,0,.21.62.86.86,0,0,0,.66.22,1,1,0,0,0,.56-.13,3.29,3.29,0,0,0,.41-.33l.55.69a1.81,1.81,0,0,1-.68.48A2.7,2.7,0,0,1,155.9,21.11Zm0-3.3a.68.68,0,0,0-.53.22.87.87,0,0,0-.19.59v.06h1.38v-.07a1,1,0,0,0-.16-.58A.61.61,0,0,0,155.88,17.81Z"></path> <path class="cls-5" d="M178.55,15.79h2.54a1.38,1.38,0,0,1,1,.36,1.35,1.35,0,0,1,.36,1,1.53,1.53,0,0,1-.07.51,1.23,1.23,0,0,1-.21.34.79.79,0,0,1-.31.2,1,1,0,0,1-.38.07v.05a1.11,1.11,0,0,1,.39.07,1,1,0,0,1,.38.21,1.13,1.13,0,0,1,.29.38,1.2,1.2,0,0,1,.12.57,1.86,1.86,0,0,1-.1.58,1.66,1.66,0,0,1-.29.48,1.27,1.27,0,0,1-.42.31,1.25,1.25,0,0,1-.54.12h-2.78Zm1.14,2.14h1.13a.44.44,0,0,0,.48-.48v-.22a.42.42,0,0,0-.48-.48h-1.13Zm0,2.13H181a.52.52,0,0,0,.36-.12.46.46,0,0,0,.13-.35v-.26a.46.46,0,0,0-.13-.35.52.52,0,0,0-.36-.12h-1.31Z"></path> <path class="cls-5" d="M183.49,17.08h1.11v.66h0a.94.94,0,0,1,.38-.54,1.14,1.14,0,0,1,.68-.21,1.3,1.3,0,0,1,1.13.53,2.54,2.54,0,0,1,.38,1.53,2.54,2.54,0,0,1-.38,1.53,1.28,1.28,0,0,1-1.13.53,1.06,1.06,0,0,1-.68-.21,1.36,1.36,0,0,1-.24-.24,1.17,1.17,0,0,1-.14-.3h0v2.16h-1.11Zm1.84,3.13a.66.66,0,0,0,.52-.22.84.84,0,0,0,.21-.6v-.68a.84.84,0,0,0-.21-.6.69.69,0,0,0-.52-.22.81.81,0,0,0-.52.16.49.49,0,0,0-.21.42v1.16a.52.52,0,0,0,.21.43A.86.86,0,0,0,185.33,20.21Z"></path> <path class="cls-5" d="M189.7,21.11a2.09,2.09,0,0,1-.81-.15,1.53,1.53,0,0,1-.59-.41,1.73,1.73,0,0,1-.37-.65,2.82,2.82,0,0,1-.12-.85,2.86,2.86,0,0,1,.12-.85,1.88,1.88,0,0,1,.35-.64,1.63,1.63,0,0,1,.58-.42,2,2,0,0,1,.79-.15,1.93,1.93,0,0,1,.84.17,1.68,1.68,0,0,1,.57.44,1.83,1.83,0,0,1,.32.64,2.73,2.73,0,0,1,.1.76v.33H189v.06a.9.9,0,0,0,.21.62.86.86,0,0,0,.66.22,1.09,1.09,0,0,0,.57-.13,3.19,3.19,0,0,0,.4-.33l.56.69a1.94,1.94,0,0,1-.69.48A2.61,2.61,0,0,1,189.7,21.11Zm0-3.3a.66.66,0,0,0-.52.22.88.88,0,0,0-.2.59v.06h1.38v-.07a1,1,0,0,0-.16-.58A.58.58,0,0,0,189.67,17.81Z"></path> <path class="cls-5" d="M192.27,17.08h1.2l1,1.62h0l1-1.62h1.2V21H195.6V18.46h0l-.3.55-.81,1.31-.8-1.31-.3-.55h0V21h-1.08Z"></path> <path class="cls-5" d="M199.36,21.11a2.09,2.09,0,0,1-.81-.15,1.53,1.53,0,0,1-.59-.41,1.73,1.73,0,0,1-.37-.65,2.82,2.82,0,0,1-.12-.85,2.86,2.86,0,0,1,.12-.85,1.88,1.88,0,0,1,.35-.64,1.63,1.63,0,0,1,.58-.42,2,2,0,0,1,.79-.15,1.93,1.93,0,0,1,.84.17,1.68,1.68,0,0,1,.57.44,1.83,1.83,0,0,1,.32.64,2.73,2.73,0,0,1,.1.76v.33h-2.53v.06a.9.9,0,0,0,.21.62.86.86,0,0,0,.66.22,1.09,1.09,0,0,0,.57-.13,3.19,3.19,0,0,0,.4-.33l.56.69a1.94,1.94,0,0,1-.69.48A2.61,2.61,0,0,1,199.36,21.11Zm0-3.3a.66.66,0,0,0-.52.22.88.88,0,0,0-.2.59v.06H200v-.07a1,1,0,0,0-.16-.58A.58.58,0,0,0,199.33,17.81Z"></path> <path class="cls-5" d="M201.93,17.08H203v1.51h1.33V17.08h1.11V21h-1.11V19.45H203V21h-1.11Z"></path> <path class="cls-5" d="M206.52,17.08h1.11v1.51H209V17.08h1.11V21H209V19.45h-1.33V21h-1.11Z"></path> <path class="cls-5" d="M212.71,21.11a2.13,2.13,0,0,1-.78-.14,1.61,1.61,0,0,1-.58-.41,1.9,1.9,0,0,1-.36-.66,2.53,2.53,0,0,1-.13-.85,2.59,2.59,0,0,1,.13-.86,2,2,0,0,1,.36-.65,1.59,1.59,0,0,1,.58-.4,1.94,1.94,0,0,1,.78-.15,1.86,1.86,0,0,1,.77.15,1.59,1.59,0,0,1,.58.4,1.79,1.79,0,0,1,.36.65,2.59,2.59,0,0,1,.13.86,2.53,2.53,0,0,1-.13.85,1.75,1.75,0,0,1-.36.66,1.61,1.61,0,0,1-.58.41A2,2,0,0,1,212.71,21.11Zm0-.88a.63.63,0,0,0,.51-.2.84.84,0,0,0,.18-.58v-.8a.86.86,0,0,0-.18-.58.75.75,0,0,0-1,0,.86.86,0,0,0-.18.58v.8a.84.84,0,0,0,.18.58A.63.63,0,0,0,212.71,20.23Z"></path> <path class="cls-5" d="M217,21.11a2,2,0,0,1-.8-.15,1.57,1.57,0,0,1-.6-.41,1.71,1.71,0,0,1-.36-.65,2.53,2.53,0,0,1-.13-.85,2.86,2.86,0,0,1,.12-.85,1.75,1.75,0,0,1,.36-.64,1.63,1.63,0,0,1,.58-.42,2,2,0,0,1,.79-.15,1.92,1.92,0,0,1,.83.17,1.5,1.5,0,0,1,.57.44,1.86,1.86,0,0,1,.33.64,3.17,3.17,0,0,1,.1.76v.33h-2.53v.06a.9.9,0,0,0,.21.62.86.86,0,0,0,.66.22,1,1,0,0,0,.56-.13,3.29,3.29,0,0,0,.41-.33l.55.69a1.81,1.81,0,0,1-.68.48A2.7,2.7,0,0,1,217,21.11Zm0-3.3a.68.68,0,0,0-.53.22.87.87,0,0,0-.19.59v.06h1.38v-.07a1,1,0,0,0-.16-.58A.61.61,0,0,0,217,17.81Z"></path> <path class="cls-5" d="M248.14,19.17h0a2.08,2.08,0,0,1-.42.13,3.22,3.22,0,0,1-.58,0,1.71,1.71,0,0,1-1.93-1.93V15.79h1.14v1.67a.79.79,0,0,0,.9.89,4,4,0,0,0,.54,0,2.74,2.74,0,0,0,.39-.1V15.79h1.14V21h-1.14Z"></path> <path class="cls-5" d="M253.28,21a.69.69,0,0,1-.5-.19.88.88,0,0,1-.25-.5h0a.91.91,0,0,1-.4.58,1.41,1.41,0,0,1-.76.2,1.24,1.24,0,0,1-.91-.31,1.12,1.12,0,0,1-.31-.83,1.05,1.05,0,0,1,.45-.93,2.25,2.25,0,0,1,1.24-.3h.62v-.25a.64.64,0,0,0-.15-.45.66.66,0,0,0-.5-.17.92.92,0,0,0-.53.14,1.42,1.42,0,0,0-.32.33l-.66-.59a1.78,1.78,0,0,1,.6-.56,2.12,2.12,0,0,1,1-.2,1.89,1.89,0,0,1,1.26.37,1.35,1.35,0,0,1,.42,1.07v1.73h.37V21Zm-1.54-.68a.9.9,0,0,0,.48-.12.43.43,0,0,0,.2-.39v-.46h-.54c-.44,0-.65.15-.65.44v.11a.37.37,0,0,0,.13.32A.61.61,0,0,0,251.74,20.34Z"></path> <path class="cls-5" d="M256.23,21.11a2,2,0,0,1-.79-.15,1.5,1.5,0,0,1-.58-.41,1.84,1.84,0,0,1-.35-.65,2.82,2.82,0,0,1-.12-.85,2.77,2.77,0,0,1,.12-.85,1.84,1.84,0,0,1,.35-.65,1.5,1.5,0,0,1,.58-.41,2,2,0,0,1,.79-.15,1.76,1.76,0,0,1,1,.27,1.46,1.46,0,0,1,.57.76l-.9.39a.68.68,0,0,0-.21-.38.63.63,0,0,0-.46-.16.59.59,0,0,0-.51.22.93.93,0,0,0-.17.6v.73a.93.93,0,0,0,.17.6.61.61,0,0,0,.51.21.68.68,0,0,0,.48-.16,1,1,0,0,0,.25-.42l.87.37a1.52,1.52,0,0,1-.61.83A1.82,1.82,0,0,1,256.23,21.11Z"></path> <path class="cls-5" d="M259.34,18H258.2v-.87h3.39V18h-1.14V21h-1.11Z"></path> <path class="cls-5" d="M263.83,21.11a2.13,2.13,0,0,1-.78-.14,1.61,1.61,0,0,1-.58-.41,1.9,1.9,0,0,1-.36-.66,2.53,2.53,0,0,1-.13-.85,2.59,2.59,0,0,1,.13-.86,2,2,0,0,1,.36-.65,1.59,1.59,0,0,1,.58-.4,1.94,1.94,0,0,1,.78-.15,1.86,1.86,0,0,1,.77.15,1.59,1.59,0,0,1,.58.4,1.79,1.79,0,0,1,.36.65,2.59,2.59,0,0,1,.13.86,2.53,2.53,0,0,1-.13.85,1.75,1.75,0,0,1-.36.66,1.61,1.61,0,0,1-.58.41A2,2,0,0,1,263.83,21.11Zm0-.88a.63.63,0,0,0,.51-.2.84.84,0,0,0,.18-.58v-.8a.86.86,0,0,0-.18-.58.75.75,0,0,0-1,0,.86.86,0,0,0-.18.58v.8a.84.84,0,0,0,.18.58A.63.63,0,0,0,263.83,20.23Z"></path> <path class="cls-5" d="M267.19,18h-1.14v-.87h3.39V18H268.3V21h-1.11Z"></path> <path class="cls-5" d="M270.11,17.08h1.11v1.51h1.34V17.08h1.11V21h-1.11V19.45h-1.34V21h-1.11Z"></path> <path class="cls-5" d="M276.3,21.11a2.13,2.13,0,0,1-.78-.14,1.57,1.57,0,0,1-.57-.41,1.92,1.92,0,0,1-.37-.66,2.81,2.81,0,0,1-.13-.85,2.88,2.88,0,0,1,.13-.86,2,2,0,0,1,.37-.65,1.55,1.55,0,0,1,.57-.4,2.1,2.1,0,0,1,1.56,0,1.55,1.55,0,0,1,.57.4,2,2,0,0,1,.37.65,2.88,2.88,0,0,1,.12.86,2.82,2.82,0,0,1-.12.85,1.92,1.92,0,0,1-.37.66,1.57,1.57,0,0,1-.57.41A2.13,2.13,0,0,1,276.3,21.11Zm0-.88a.63.63,0,0,0,.51-.2.84.84,0,0,0,.18-.58v-.8a.86.86,0,0,0-.18-.58.75.75,0,0,0-1,0,.86.86,0,0,0-.18.58v.8a.84.84,0,0,0,.18.58A.63.63,0,0,0,276.3,20.23Z"></path> <path class="cls-5" d="M280.57,21.11a2,2,0,0,1-.8-.15,1.53,1.53,0,0,1-.59-.41,1.6,1.6,0,0,1-.37-.65,2.81,2.81,0,0,1-.13-.85,2.86,2.86,0,0,1,.12-.85,1.75,1.75,0,0,1,.36-.64,1.63,1.63,0,0,1,.58-.42,2,2,0,0,1,.79-.15,2,2,0,0,1,.84.17,1.68,1.68,0,0,1,.57.44,2,2,0,0,1,.32.64,2.73,2.73,0,0,1,.1.76v.33h-2.53v.06A.9.9,0,0,0,280,20a.86.86,0,0,0,.66.22,1,1,0,0,0,.56-.13,3.29,3.29,0,0,0,.41-.33l.55.69a1.81,1.81,0,0,1-.68.48A2.66,2.66,0,0,1,280.57,21.11Zm0-3.3A.7.7,0,0,0,280,18a.93.93,0,0,0-.19.59v.06h1.38v-.07a1,1,0,0,0-.16-.58A.59.59,0,0,0,280.55,17.81Z"></path> <path class="cls-5" d="M301.44,15.79h1.14v2.07h.76l.78-1.45a1.33,1.33,0,0,1,.38-.47,1,1,0,0,1,.55-.15h.47v1h-.47l-.54,1a1.09,1.09,0,0,1-.23.31,1,1,0,0,1-.31.16v.05a.63.63,0,0,1,.33.15.92.92,0,0,1,.24.32l.62,1.2h.47v1H305a.93.93,0,0,1-.52-.13,1.22,1.22,0,0,1-.39-.51l-.78-1.5h-.76V21h-1.14Z"></path> <path class="cls-5" d="M307.9,21.11a2.13,2.13,0,0,1-.78-.14,1.61,1.61,0,0,1-.58-.41,1.9,1.9,0,0,1-.36-.66,2.53,2.53,0,0,1-.13-.85,2.59,2.59,0,0,1,.13-.86,2,2,0,0,1,.36-.65,1.59,1.59,0,0,1,.58-.4,1.94,1.94,0,0,1,.78-.15,1.86,1.86,0,0,1,.77.15,1.59,1.59,0,0,1,.58.4,1.79,1.79,0,0,1,.36.65,2.59,2.59,0,0,1,.13.86,2.53,2.53,0,0,1-.13.85,1.75,1.75,0,0,1-.36.66,1.61,1.61,0,0,1-.58.41A2,2,0,0,1,307.9,21.11Zm0-.88a.63.63,0,0,0,.51-.2.84.84,0,0,0,.18-.58v-.8a.86.86,0,0,0-.18-.58.75.75,0,0,0-1,0,.86.86,0,0,0-.18.58v.8a.84.84,0,0,0,.18.58A.63.63,0,0,0,307.9,20.23Z"></path> <path class="cls-5" d="M310.46,17.08h1.11v.66h0a.89.89,0,0,1,.38-.54,1.14,1.14,0,0,1,.68-.21,1.32,1.32,0,0,1,1.13.53,2.62,2.62,0,0,1,.38,1.53,2.62,2.62,0,0,1-.38,1.53,1.29,1.29,0,0,1-1.13.53,1.44,1.44,0,0,1-.37-.05,1.29,1.29,0,0,1-.31-.16,1.36,1.36,0,0,1-.24-.24,1.17,1.17,0,0,1-.14-.3h0v2.16h-1.11Zm1.84,3.13a.67.67,0,0,0,.52-.22.84.84,0,0,0,.21-.6v-.68a.84.84,0,0,0-.21-.6.71.71,0,0,0-.52-.22.81.81,0,0,0-.52.16.49.49,0,0,0-.21.42v1.16a.52.52,0,0,0,.21.43A.86.86,0,0,0,312.3,20.21Z"></path> <path class="cls-5" d="M315,17.08h1.11v.66h0a.94.94,0,0,1,.38-.54,1.14,1.14,0,0,1,.68-.21,1.3,1.3,0,0,1,1.13.53,2.54,2.54,0,0,1,.38,1.53,2.54,2.54,0,0,1-.38,1.53,1.28,1.28,0,0,1-1.13.53,1.06,1.06,0,0,1-.68-.21,1.36,1.36,0,0,1-.24-.24,1.17,1.17,0,0,1-.14-.3h0v2.16H315Zm1.84,3.13a.66.66,0,0,0,.52-.22.84.84,0,0,0,.21-.6v-.68a.84.84,0,0,0-.21-.6.69.69,0,0,0-.52-.22.81.81,0,0,0-.52.16.49.49,0,0,0-.21.42v1.16a.52.52,0,0,0,.21.43A.86.86,0,0,0,316.79,20.21Z"></path> <path class="cls-5" d="M321.09,21.11a2,2,0,0,1-.8-.15,1.5,1.5,0,0,1-.6-.41,1.87,1.87,0,0,1-.37-.65,2.82,2.82,0,0,1-.12-.85,2.86,2.86,0,0,1,.12-.85,1.75,1.75,0,0,1,.36-.64,1.55,1.55,0,0,1,.58-.42,2.13,2.13,0,0,1,1.62,0,1.61,1.61,0,0,1,.89,1.08,2.73,2.73,0,0,1,.1.76v.33h-2.52v.06a.9.9,0,0,0,.21.62.86.86,0,0,0,.66.22,1.06,1.06,0,0,0,.56-.13,3.19,3.19,0,0,0,.4-.33l.56.69a1.85,1.85,0,0,1-.69.48A2.61,2.61,0,0,1,321.09,21.11Zm0-3.3a.68.68,0,0,0-.53.22.87.87,0,0,0-.19.59v.06h1.38v-.07a1,1,0,0,0-.16-.58A.61.61,0,0,0,321.07,17.81Z"></path> <path class="cls-5" d="M323.19,20.16h.51a1.17,1.17,0,0,0,.13-.25,2.28,2.28,0,0,0,.1-.36A3.56,3.56,0,0,0,324,19c0-.2,0-.43,0-.7V17.08h3.13V21H326V18h-.95v.44a7.74,7.74,0,0,1,0,.89,3.59,3.59,0,0,1-.11.67,1.93,1.93,0,0,1-.18.47,1.13,1.13,0,0,1-.22.32,1,1,0,0,1-.41.25,2,2,0,0,1-.59.08h-.34Z"></path> <path class="cls-5" d="M327.91,20.16h.42l.18-.35a.47.47,0,0,1,.42-.3v0a1.23,1.23,0,0,1-.71-.32,1.05,1.05,0,0,1-.26-.75,1.35,1.35,0,0,1,.1-.55,1.17,1.17,0,0,1,.29-.42,1.45,1.45,0,0,1,.43-.26,1.61,1.61,0,0,1,.54-.09h2.14V21h-1.11V19.65h-.61l-.41.81a.85.85,0,0,1-.88.56h-.54Zm2.44-1.3v-1h-.79a.5.5,0,0,0-.35.12.4.4,0,0,0-.13.33v.13a.35.35,0,0,0,.13.29.5.5,0,0,0,.35.12Z"></path> <path class="cls-5" d="M335.54,21h-3.11V17.08h1.11v3.08h1.22V17.08h1.11v3.08h.68v1.91h-1Z"></path> <path class="cls-5" d="M337.11,17.08h1.09v1.59l-.1.91h0l.46-.84,1.09-1.66h1V21h-1.08V19.44l.09-.92h0l-.46.84L338.1,21h-1Z"></path> <path class="cls-5" d="M343.23,21.11a2.13,2.13,0,0,1-.78-.14,1.57,1.57,0,0,1-.57-.41,1.92,1.92,0,0,1-.37-.66,2.81,2.81,0,0,1-.13-.85,2.88,2.88,0,0,1,.13-.86,2,2,0,0,1,.37-.65,1.55,1.55,0,0,1,.57-.4,2.1,2.1,0,0,1,1.56,0,1.55,1.55,0,0,1,.57.4,2,2,0,0,1,.37.65,2.88,2.88,0,0,1,.12.86,2.82,2.82,0,0,1-.12.85,1.92,1.92,0,0,1-.37.66A1.57,1.57,0,0,1,344,21,2.13,2.13,0,0,1,343.23,21.11Zm0-.88a.63.63,0,0,0,.51-.2.84.84,0,0,0,.18-.58v-.8a.86.86,0,0,0-.18-.58.75.75,0,0,0-1,0,.86.86,0,0,0-.18.58v.8a.84.84,0,0,0,.18.58A.63.63,0,0,0,343.23,20.23Z"></path> <path class="cls-5" d="M345.79,17.08h1.11v1.51h1.34V17.08h1.11V21h-1.11V19.45H346.9V21h-1.11Z"></path> <path class="cls-5" d="M350.32,17.08h1.11v1.51h1.33V17.08h1.11V21h-1.11V19.45h-1.33V21h-1.11Z"></path> <path class="cls-5" d="M356.44,21.11a2.13,2.13,0,0,1-.78-.14,1.61,1.61,0,0,1-.58-.41,1.9,1.9,0,0,1-.36-.66,2.53,2.53,0,0,1-.13-.85,2.59,2.59,0,0,1,.13-.86,2,2,0,0,1,.36-.65,1.59,1.59,0,0,1,.58-.4,1.94,1.94,0,0,1,.78-.15,1.86,1.86,0,0,1,.77.15,1.59,1.59,0,0,1,.58.4,1.79,1.79,0,0,1,.36.65,2.59,2.59,0,0,1,.13.86,2.53,2.53,0,0,1-.13.85,1.75,1.75,0,0,1-.36.66,1.61,1.61,0,0,1-.58.41A2,2,0,0,1,356.44,21.11Zm0-.88A.63.63,0,0,0,357,20a.84.84,0,0,0,.18-.58v-.8a.86.86,0,0,0-.18-.58.75.75,0,0,0-1,0,.86.86,0,0,0-.18.58v.8a.84.84,0,0,0,.18.58A.63.63,0,0,0,356.44,20.23Z"></path> <path class="cls-5" d="M360.64,21.11a2,2,0,0,1-.8-.15,1.53,1.53,0,0,1-.59-.41,1.6,1.6,0,0,1-.37-.65,2.81,2.81,0,0,1-.13-.85,2.86,2.86,0,0,1,.12-.85,1.75,1.75,0,0,1,.36-.64,1.63,1.63,0,0,1,.58-.42,2,2,0,0,1,.79-.15,2,2,0,0,1,.84.17,1.68,1.68,0,0,1,.57.44,2,2,0,0,1,.32.64,2.73,2.73,0,0,1,.1.76v.33H359.9v.06a.9.9,0,0,0,.21.62.86.86,0,0,0,.66.22,1,1,0,0,0,.56-.13,3.29,3.29,0,0,0,.41-.33l.55.69a1.81,1.81,0,0,1-.68.48A2.66,2.66,0,0,1,360.64,21.11Zm0-3.3a.7.7,0,0,0-.53.22.93.93,0,0,0-.19.59v.06h1.38v-.07a1,1,0,0,0-.16-.58A.59.59,0,0,0,360.62,17.81Z"></path> <path class="cls-6" d="M19.18,62.21V61.14h1.94v-.71l-1.36-.72a1.32,1.32,0,0,1-.43-.36.86.86,0,0,1-.15-.52V58.4h.95v.43l.95.5a1,1,0,0,1,.29.23.8.8,0,0,1,.15.29h.05a.7.7,0,0,1,.13-.32.85.85,0,0,1,.31-.22l1.11-.58V58.3h.95v.55a.83.83,0,0,1-.13.49,1.18,1.18,0,0,1-.47.37l-1.4.72v.71h2v1.07Z"></path> <path class="cls-6" d="M20.39,57.54v-1H21v0a.91.91,0,0,1-.51-.36,1.12,1.12,0,0,1-.19-.63,1.22,1.22,0,0,1,.49-1.06,2.39,2.39,0,0,1,1.43-.36,2.42,2.42,0,0,1,1.43.36,1.22,1.22,0,0,1,.49,1.06,1.27,1.27,0,0,1,0,.34.89.89,0,0,1-.15.29.77.77,0,0,1-.22.22,1,1,0,0,1-.28.14v0h2v1Zm2.92-1.72a.68.68,0,0,0-.2-.49.84.84,0,0,0-.56-.19h-.64a.8.8,0,0,0-.55.19.65.65,0,0,0-.21.49.84.84,0,0,0,.14.49.47.47,0,0,0,.4.19h1.08a.47.47,0,0,0,.4-.19A.84.84,0,0,0,23.31,55.82Z"></path> <path class="cls-6" d="M20.39,51.1v-1l4.25,1.41a1.4,1.4,0,0,1,.63.4,1.18,1.18,0,0,1,.2.73v.64h-.81v-.69l-.4-.12-3.87,1.28v-1l1.72-.54L23.17,52v0l-1.06-.27Z"></path> <path class="cls-6" d="M20.39,49.61V47.12h.81v1.45h2.87v1Z"></path> <path class="cls-6" d="M24.15,45.06a1.81,1.81,0,0,1-.13.72,1.5,1.5,0,0,1-.39.54,1.68,1.68,0,0,1-.6.34,2.53,2.53,0,0,1-.8.12,2.49,2.49,0,0,1-.8-.12,1.72,1.72,0,0,1-.61-.34,1.6,1.6,0,0,1-.38-.54,2.09,2.09,0,0,1,0-1.45,1.6,1.6,0,0,1,.38-.54,1.89,1.89,0,0,1,.61-.34,2.49,2.49,0,0,1,.8-.12,2.53,2.53,0,0,1,.8.12,1.84,1.84,0,0,1,.6.34,1.5,1.5,0,0,1,.39.54A1.83,1.83,0,0,1,24.15,45.06Zm-.82,0a.59.59,0,0,0-.19-.48.77.77,0,0,0-.53-.17h-.75a.78.78,0,0,0-.54.17.59.59,0,0,0-.19.48.58.58,0,0,0,.19.47.78.78,0,0,0,.54.17h.75a.77.77,0,0,0,.53-.17A.58.58,0,0,0,23.33,45.06Z"></path> <path class="cls-6" d="M20.39,42.6V40.51a1.1,1.1,0,0,1,.26-.78.89.89,0,0,1,.67-.26.74.74,0,0,1,.55.19,1,1,0,0,1,.25.59h0c.05-.61.34-.92.84-.92a1,1,0,0,1,.78.31,1.2,1.2,0,0,1,.29.85V42.6Zm1.52-1.79a.28.28,0,0,0-.3-.3h-.19a.29.29,0,0,0-.21.08.26.26,0,0,0-.08.22v.78h.78Zm1.42-.13a.31.31,0,0,0-.07-.22.28.28,0,0,0-.22-.09h-.22a.29.29,0,0,0-.22.09.31.31,0,0,0-.08.22v.91h.81Z"></path> <path class="cls-6" d="M24.07,35.85a.66.66,0,0,1-.18.47.78.78,0,0,1-.47.23v0A.9.9,0,0,1,24,37a1.31,1.31,0,0,1,.18.71,1.18,1.18,0,0,1-.29.85,1.07,1.07,0,0,1-.78.29,1,1,0,0,1-.86-.42,2,2,0,0,1-.28-1.15v-.59h-.23a.54.54,0,0,0-.58.61.79.79,0,0,0,.13.49,1.27,1.27,0,0,0,.3.31l-.55.61a1.6,1.6,0,0,1-.51-.56,1.88,1.88,0,0,1-.19-.92A1.73,1.73,0,0,1,20.65,36a1.26,1.26,0,0,1,1-.39h1.61v-.34h.81Zm-.64,1.44a.88.88,0,0,0-.11-.45.39.39,0,0,0-.36-.19h-.43v.51c0,.4.14.61.41.61H23a.33.33,0,0,0,.3-.13A.58.58,0,0,0,23.43,37.29Z"></path> <path class="cls-6" d="M23.26,34.77v-.4l-.33-.16a.49.49,0,0,1-.28-.39h0a1.16,1.16,0,0,1-.3.66,1,1,0,0,1-.7.24,1.46,1.46,0,0,1-.52-.09,1.19,1.19,0,0,1-.38-.27,1.06,1.06,0,0,1-.24-.41,1.33,1.33,0,0,1-.09-.49v-2h3.68v1H22.79v.57l.75.38a.9.9,0,0,1,.41.34.91.91,0,0,1,.12.49v.5Zm-1.21-2.28h-.92v.74a.49.49,0,0,0,.11.33.39.39,0,0,0,.31.12h.12a.34.34,0,0,0,.27-.12.44.44,0,0,0,.11-.33Z"></path> <path class="cls-6" d="M23.12,106.4v-.58a1,1,0,0,0-.29-.19,2.07,2.07,0,0,0-.46-.15,5.14,5.14,0,0,0-.68-.09c-.26,0-.58,0-1,0H19.18v-3.45h4.89V103H20.13v1.35h.75c.43,0,.8,0,1.12.05a6.73,6.73,0,0,1,.81.14,2.05,2.05,0,0,1,.55.2,1.42,1.42,0,0,1,.35.24,1.24,1.24,0,0,1,.31.47,1.81,1.81,0,0,1,.09.62v.36Z"></path> <path class="cls-6" d="M20.39,100.89v-1h1.48l.85.09v0l-.78-.42-1.55-1v-.92h3.68v1H22.59l-.85-.09v0l.78.43,1.55,1v.93Z"></path> <path class="cls-6" d="M20.39,96.6v-1H21.8V94.32H20.39v-1h3.68v1H22.61v1.25h1.46v1Z"></path> <path class="cls-6" d="M24.15,90.79a1.92,1.92,0,0,1-.13.74,1.55,1.55,0,0,1-1,.9,2.53,2.53,0,0,1-.8.12,2.79,2.79,0,0,1-.79-.11,1.88,1.88,0,0,1-.61-.33,1.55,1.55,0,0,1-.38-.55,1.7,1.7,0,0,1-.14-.73,1.81,1.81,0,0,1,.15-.78,1.4,1.4,0,0,1,.42-.53,1.75,1.75,0,0,1,.59-.31,2.84,2.84,0,0,1,.72-.09h.3v2.36h.06a.81.81,0,0,0,.57-.2.79.79,0,0,0,.21-.61,1,1,0,0,0-.12-.53,2.72,2.72,0,0,0-.31-.38l.64-.51a1.61,1.61,0,0,1,.45.64A2.29,2.29,0,0,1,24.15,90.79Zm-3.08,0a.61.61,0,0,0,.21.49.81.81,0,0,0,.55.18h.05V90.19h-.06a.91.91,0,0,0-.54.15A.54.54,0,0,0,21.07,90.81Z"></path> <path class="cls-6" d="M20,86.72a1.23,1.23,0,0,1-.21.75,1.34,1.34,0,0,1-.58.45l-.36.14-.3-.8.71-.23a.5.5,0,0,0,0-.13,1.62,1.62,0,0,0,0-.36.84.84,0,0,0,0-.14l-.71-.22.3-.8.36.14a1.34,1.34,0,0,1,.58.45A1.23,1.23,0,0,1,20,86.72Zm.37,1.67v-1h1.48l.85.09v0L21.94,87l-1.55-1v-.92h3.68v1H22.59L21.74,86v0l.78.43,1.55,1v.93Z"></path> <path class="cls-6" d="M20.39,84.1v-1H21.8V81.82H20.39v-1h3.68v1H22.61v1.24h1.46v1Z"></path> <path class="cls-6" d="M24.07,77.1a.66.66,0,0,1-.18.47.78.78,0,0,1-.47.23v0a.9.9,0,0,1,.55.37,1.31,1.31,0,0,1,.18.71,1.18,1.18,0,0,1-.29.85,1.07,1.07,0,0,1-.78.29,1,1,0,0,1-.86-.42,2,2,0,0,1-.28-1.15v-.58h-.23a.56.56,0,0,0-.42.14.57.57,0,0,0-.16.46.79.79,0,0,0,.13.49,1.27,1.27,0,0,0,.3.31l-.55.61a1.6,1.6,0,0,1-.51-.56,1.88,1.88,0,0,1-.19-.92,1.73,1.73,0,0,1,.34-1.18,1.26,1.26,0,0,1,1-.39h1.61v-.34h.81Zm-.64,1.44a.91.91,0,0,0-.11-.45.38.38,0,0,0-.36-.18h-.43v.5c0,.41.14.61.41.61H23a.33.33,0,0,0,.3-.13A.58.58,0,0,0,23.43,78.54Z"></path> <path class="cls-6" d="M23.26,76v-.4l-.33-.16a.49.49,0,0,1-.28-.39h0a1.16,1.16,0,0,1-.3.66,1,1,0,0,1-.7.24,1.46,1.46,0,0,1-.52-.09,1.19,1.19,0,0,1-.38-.27,1.06,1.06,0,0,1-.24-.41,1.33,1.33,0,0,1-.09-.49v-2h3.68v1H22.79v.57l.75.38A.9.9,0,0,1,24,75a.91.91,0,0,1,.12.49V76Zm-1.21-2.28h-.92v.74a.49.49,0,0,0,.11.33.39.39,0,0,0,.31.12h.12a.34.34,0,0,0,.27-.12.44.44,0,0,0,.11-.33Z"></path> <path class="cls-6" d="M19.18,157.06v-2.87h.95V156h3.94v1.06Z"></path> <path class="cls-6" d="M20.39,153.86v-1h1.48l.86.09v0l-.79-.43-1.55-1v-.92h3.68v1H22.59l-.85-.09v0l.78.43,1.55,1v.92Z"></path> <path class="cls-6" d="M24.15,148.1a1.86,1.86,0,0,1-.13.73,1.34,1.34,0,0,1-.39.54,1.82,1.82,0,0,1-.6.33,2.86,2.86,0,0,1-.8.11,2.81,2.81,0,0,1-.8-.11,1.93,1.93,0,0,1-.6-.33,1.34,1.34,0,0,1-.39-.54,1.86,1.86,0,0,1-.13-.73,1.63,1.63,0,0,1,.25-.94,1.36,1.36,0,0,1,.71-.53l.36.84a.65.65,0,0,0-.35.2.58.58,0,0,0-.15.43.55.55,0,0,0,.21.47.84.84,0,0,0,.55.16h.69a.84.84,0,0,0,.55-.16.55.55,0,0,0,.2-.47.64.64,0,0,0-.15-.45.86.86,0,0,0-.39-.24l.35-.81a1.48,1.48,0,0,1,.77.57A1.69,1.69,0,0,1,24.15,148.1Z"></path> <path class="cls-6" d="M21.2,145.19v1.06h-.81v-3.16h.81v1.06h2.87v1Z"></path> <path class="cls-6" d="M24.15,141a1.83,1.83,0,0,1-.13.73,1.6,1.6,0,0,1-.38.54,2,2,0,0,1-.61.34,2.53,2.53,0,0,1-.8.12,2.49,2.49,0,0,1-.8-.12,1.89,1.89,0,0,1-.61-.34,1.6,1.6,0,0,1-.38-.54,2.09,2.09,0,0,1,0-1.45,1.6,1.6,0,0,1,.38-.54,1.72,1.72,0,0,1,.61-.34,2.49,2.49,0,0,1,.8-.12,2.53,2.53,0,0,1,.8.12,1.82,1.82,0,0,1,.61.34,1.6,1.6,0,0,1,.38.54A1.81,1.81,0,0,1,24.15,141Zm-.82,0a.61.61,0,0,0-.18-.47.81.81,0,0,0-.54-.17h-.75a.78.78,0,0,0-.54.17.58.58,0,0,0-.19.47.59.59,0,0,0,.19.48.78.78,0,0,0,.54.17h.75a.81.81,0,0,0,.54-.17A.62.62,0,0,0,23.33,141Z"></path> <path class="cls-6" d="M20.39,138.55v-2.49h.81v1.45h2.87v1Z"></path> <path class="cls-6" d="M20.39,135.44v-1H21v0a.84.84,0,0,1-.5-.35,1.1,1.1,0,0,1-.2-.64,1.22,1.22,0,0,1,.49-1.06,2.47,2.47,0,0,1,1.43-.35,2.49,2.49,0,0,1,1.43.35,1.22,1.22,0,0,1,.49,1.06,1,1,0,0,1,0,.35A1.14,1.14,0,0,1,24,134a.92.92,0,0,1-.22.22,1,1,0,0,1-.28.13v0h2v1Zm2.92-1.71a.66.66,0,0,0-.2-.49.79.79,0,0,0-.56-.19h-.64a.75.75,0,0,0-.55.19.64.64,0,0,0-.21.49.83.83,0,0,0,.14.48.47.47,0,0,0,.4.19h1.08a.47.47,0,0,0,.4-.19A.76.76,0,0,0,23.31,133.73Z"></path> <path class="cls-6" d="M24.07,128.47a.63.63,0,0,1-.18.46.74.74,0,0,1-.46.24v0a.9.9,0,0,1,.54.37,1.31,1.31,0,0,1,.18.71,1.14,1.14,0,0,1-.29.85,1.06,1.06,0,0,1-.77.29,1,1,0,0,1-.87-.42,2.08,2.08,0,0,1-.28-1.16v-.58h-.23a.61.61,0,0,0-.42.14.59.59,0,0,0-.16.47.79.79,0,0,0,.13.49,1.42,1.42,0,0,0,.3.3l-.55.62a1.6,1.6,0,0,1-.51-.56,1.88,1.88,0,0,1-.19-.92,1.73,1.73,0,0,1,.34-1.18,1.27,1.27,0,0,1,1-.39h1.61v-.35h.81Zm-.64,1.43a.78.78,0,0,0-.11-.44.37.37,0,0,0-.36-.19h-.43v.51c0,.4.14.61.41.61H23a.36.36,0,0,0,.3-.13A.6.6,0,0,0,23.43,129.9Z"></path> <path class="cls-6" d="M20.39,127.2v-1.12l1.51-.92v0l-1.51-.92v-1.13h3.68v1H21.68v0l.51.28,1.22.75-1.22.75-.51.28v0h2.39v1Z"></path> <path class="cls-6" d="M20.39,122.12V121l1.51-.93v0l-1.51-.93V118h3.68v1H21.68v0l.51.28,1.22.75-1.22.75-.51.28v0h2.39v1Z"></path> <path class="cls-6" d="M24.07,114.32a.66.66,0,0,1-.18.47.78.78,0,0,1-.46.23v0a.9.9,0,0,1,.54.37,1.34,1.34,0,0,1,.18.71,1.14,1.14,0,0,1-.29.85,1.06,1.06,0,0,1-.77.29,1,1,0,0,1-.87-.42,2,2,0,0,1-.28-1.15v-.58h-.23a.56.56,0,0,0-.42.14.57.57,0,0,0-.16.46.84.84,0,0,0,.13.5,1.42,1.42,0,0,0,.3.3l-.55.61a1.52,1.52,0,0,1-.51-.56,1.85,1.85,0,0,1-.19-.92,1.75,1.75,0,0,1,.34-1.18,1.27,1.27,0,0,1,1-.39h1.61v-.34h.81Zm-.64,1.44a.81.81,0,0,0-.11-.45.38.38,0,0,0-.36-.18h-.43v.5c0,.41.14.61.41.61H23a.33.33,0,0,0,.3-.13A.58.58,0,0,0,23.43,115.76Z"></path> <path class="cls-6" d="M19.18,195.16v-2.87h.95v1.8h3.94v1.07Z"></path> <path class="cls-6" d="M20.39,192v-1H21v0a.91.91,0,0,1-.51-.36,1.12,1.12,0,0,1-.19-.63,1.22,1.22,0,0,1,.49-1.06,2.39,2.39,0,0,1,1.43-.36,2.42,2.42,0,0,1,1.43.36,1.34,1.34,0,0,1,.44,1.4.89.89,0,0,1-.15.29.77.77,0,0,1-.22.22,1,1,0,0,1-.28.14v0h2v1Zm2.92-1.72a.64.64,0,0,0-.2-.48.8.8,0,0,0-.56-.2h-.64a.76.76,0,0,0-.55.2.61.61,0,0,0-.21.48.84.84,0,0,0,.14.49.47.47,0,0,0,.4.19h1.08a.47.47,0,0,0,.4-.19A.84.84,0,0,0,23.31,190.24Z"></path> <path class="cls-6" d="M24.07,185a.64.64,0,0,1-.18.47.85.85,0,0,1-.47.24v0a.86.86,0,0,1,.55.37,1.31,1.31,0,0,1,.18.71,1.16,1.16,0,0,1-.29.84,1,1,0,0,1-.78.3,1,1,0,0,1-.86-.43,2,2,0,0,1-.28-1.15v-.58h-.23a.61.61,0,0,0-.42.14.58.58,0,0,0-.16.47.81.81,0,0,0,.13.49,1.42,1.42,0,0,0,.3.3l-.55.62a1.55,1.55,0,0,1-.51-.57,1.83,1.83,0,0,1-.19-.92,1.72,1.72,0,0,1,.34-1.17,1.27,1.27,0,0,1,1-.4h1.61v-.34h.81Zm-.64,1.44a.87.87,0,0,0-.11-.44.37.37,0,0,0-.36-.19h-.43v.5c0,.41.14.61.41.61H23a.35.35,0,0,0,.3-.12A.64.64,0,0,0,23.43,186.42Z"></path> <path class="cls-6" d="M23.68,181.91v0a.84.84,0,0,1,.47.81,1,1,0,0,1-.44.89,2.88,2.88,0,0,1-1.48.28,2.86,2.86,0,0,1-1.47-.28,1,1,0,0,1-.45-.89.85.85,0,0,1,.49-.81v0H19.1v-1h1.7v0a.84.84,0,0,1-.49-.8,1,1,0,0,1,.45-.9,3,3,0,0,1,1.47-.28,3,3,0,0,1,1.48.28,1,1,0,0,1,.44.9.84.84,0,0,1-.47.8v0h1.79v1Zm-.27-1.47a.43.43,0,0,0-.2-.4,1.23,1.23,0,0,0-.62-.12h-.72a1.23,1.23,0,0,0-.62.12.43.43,0,0,0-.2.4.42.42,0,0,0,.11.33.44.44,0,0,0,.3.1H23a.37.37,0,0,0,.41-.43Zm0,1.89a.45.45,0,0,0-.11-.33.47.47,0,0,0-.3-.09H21.46a.49.49,0,0,0-.3.09.53.53,0,0,0,.09.74,1.23,1.23,0,0,0,.62.12h.72a1.23,1.23,0,0,0,.62-.12A.45.45,0,0,0,23.41,182.33Z"></path> <path class="cls-6" d="M20.39,178.09v-1h1.48l.85.09v0l-.78-.43-1.55-1v-.93h3.68v1H22.59l-.85-.09v0l.78.43,1.55,1v.92Z"></path> <path class="cls-6" d="M20.39,173.81v-1H21.8v-.53l-.9-.48a1,1,0,0,1-.39-.34.85.85,0,0,1-.12-.48v-.42h.81v.37l.59.31a.78.78,0,0,1,.25.2.52.52,0,0,1,.12.22h0a.55.55,0,0,1,.1-.22.7.7,0,0,1,.22-.19l.75-.41v-.38h.81v.48a.85.85,0,0,1-.12.48,1.21,1.21,0,0,1-.41.34l-.93.52v.53h1.46v1Z"></path> <path class="cls-6" d="M20.13,238.86h3.94v1.06H20.13v1.32h-.95v-3.71h.95Z"></path> <path class="cls-6" d="M24.15,235.83a1.81,1.81,0,0,1-.13.72,1.6,1.6,0,0,1-.38.54,1.82,1.82,0,0,1-.61.34,2.53,2.53,0,0,1-.8.12,2.49,2.49,0,0,1-.8-.12,1.72,1.72,0,0,1-.61-.34,1.6,1.6,0,0,1-.38-.54,1.81,1.81,0,0,1-.13-.72,1.86,1.86,0,0,1,.13-.73,1.6,1.6,0,0,1,.38-.54,1.89,1.89,0,0,1,.61-.34,2.8,2.8,0,0,1,.8-.12,2.86,2.86,0,0,1,.8.12,2,2,0,0,1,.61.34,1.6,1.6,0,0,1,.38.54A1.86,1.86,0,0,1,24.15,235.83Zm-.82,0a.62.62,0,0,0-.18-.48.81.81,0,0,0-.54-.17h-.75a.78.78,0,0,0-.54.17.59.59,0,0,0-.19.48.58.58,0,0,0,.19.47.78.78,0,0,0,.54.17h.75a.81.81,0,0,0,.54-.17A.61.61,0,0,0,23.33,235.83Z"></path> <path class="cls-6" d="M22.51,231.33v0a.87.87,0,0,1,.35.36,1.43,1.43,0,0,1-.19,1.5,1.46,1.46,0,0,1-1,.28H20.39v-1h1.24a.56.56,0,0,0,.4-.13.63.63,0,0,0,.12-.43.78.78,0,0,0-.1-.44.31.31,0,0,0-.27-.14H20.39v-1h3.68v1Z"></path> <path class="cls-6" d="M24.15,227.79a2,2,0,0,1-.13.75,1.57,1.57,0,0,1-.39.56,1.68,1.68,0,0,1-.6.34,2.53,2.53,0,0,1-.8.12,2.47,2.47,0,0,1-.79-.12,1.57,1.57,0,0,1-.61-.33,1.6,1.6,0,0,1-.38-.54,1.75,1.75,0,0,1-.14-.74,1.87,1.87,0,0,1,.15-.78,1.48,1.48,0,0,1,.42-.53,1.54,1.54,0,0,1,.6-.3,2.71,2.71,0,0,1,.71-.1h.3v2.36h.06a.8.8,0,0,0,.57-.19.82.82,0,0,0,.21-.62,1,1,0,0,0-.12-.52,2.24,2.24,0,0,0-.31-.38l.64-.52a1.68,1.68,0,0,1,.45.64A2.29,2.29,0,0,1,24.15,227.79Zm-3.08,0a.63.63,0,0,0,.21.5.86.86,0,0,0,.55.17h.06V227.2h-.07a.91.91,0,0,0-.54.15A.52.52,0,0,0,21.07,227.81Z"></path> <path class="cls-6" d="M22.51,223.35v0a.87.87,0,0,1,.35.36,1.43,1.43,0,0,1-.19,1.5,1.46,1.46,0,0,1-1,.28H20.39v-1h1.24a.56.56,0,0,0,.4-.13.63.63,0,0,0,.12-.43.78.78,0,0,0-.1-.44.33.33,0,0,0-.27-.14H20.39v-1h3.68v1Z"></path> <path class="cls-6" d="M20.39,221.34v-1H21.8v-1.25H20.39v-1h3.68v1H22.61v1.25h1.46v1Z"></path> <path class="cls-6" d="M24.07,214.34a.64.64,0,0,1-.18.47.78.78,0,0,1-.46.23v.05a.86.86,0,0,1,.54.37,1.28,1.28,0,0,1,.18.7,1.14,1.14,0,0,1-.29.85,1,1,0,0,1-.77.3,1,1,0,0,1-.87-.43,2,2,0,0,1-.28-1.15v-.58h-.23a.61.61,0,0,0-.42.14.58.58,0,0,0-.16.47.81.81,0,0,0,.13.49,1.42,1.42,0,0,0,.3.3l-.55.61a1.45,1.45,0,0,1-.51-.56,1.83,1.83,0,0,1-.19-.92,1.77,1.77,0,0,1,.34-1.18,1.27,1.27,0,0,1,1-.39h1.61v-.34h.81Zm-.64,1.44a.84.84,0,0,0-.11-.45.38.38,0,0,0-.36-.18h-.43v.5c0,.41.14.61.41.61H23a.35.35,0,0,0,.3-.12A.64.64,0,0,0,23.43,215.78Z"></path> <path class="cls-6" d="M23.26,213.26v-.39l-.32-.17a.45.45,0,0,1-.29-.39h0a1.13,1.13,0,0,1-.3.66.92.92,0,0,1-.7.25,1.46,1.46,0,0,1-.52-.1,1.19,1.19,0,0,1-.38-.27,1.1,1.1,0,0,1-.24-.4,1.39,1.39,0,0,1-.09-.5v-2h3.68v1H22.79v.57l.75.39a.84.84,0,0,1,.41.34.88.88,0,0,1,.12.48v.5ZM22.05,211h-.92v.75a.48.48,0,0,0,.11.32.39.39,0,0,0,.31.12h.12a.34.34,0,0,0,.27-.12.43.43,0,0,0,.11-.32Z"></path> <rect class="cls-1" x="252.7" y="126.95" width="8.32" height="30.23"></rect> <rect class="cls-1" x="239.41" y="137.97" width="8.32" height="19.2"></rect> <rect class="cls-1" x="265.99" y="114.66" width="8.32" height="42.52"></rect> <rect class="cls-1" x="279.27" y="129.54" width="8.32" height="27.64"></rect> <rect class="cls-1" x="108.3" y="72.18" width="48.37" height="6.51"></rect> <rect class="cls-1" x="108.3" y="81.35" width="37.2" height="6.51"></rect> <rect class="cls-1" x="108.3" y="90.52" width="24.18" height="6.51"></rect> <rect class="cls-1" x="108.3" y="99.69" width="12.09" height="6.51"></rect> <rect class="cls-1" x="184.74" y="137.97" width="7.26" height="19.2"></rect> <rect class="cls-1" x="174.51" y="121.44" width="7.26" height="35.74"></rect> <rect class="cls-1" x="194.97" y="114.66" width="7.26" height="42.52"></rect> <rect class="cls-1" x="205.2" y="129.54" width="7.26" height="27.64"></rect> <rect class="cls-1" x="215.44" y="143.36" width="7.26" height="13.82"></rect> <path class="cls-7" d="M64.37,46.1H45.94A18.43,18.43,0,0,1,64.37,27.68Z"></path> <path class="cls-8" d="M64.37,46.1l-10,15.46A18.15,18.15,0,0,1,45.94,46.1Z"></path> <path class="cls-1" d="M64.37,46.1V27.68a18.43,18.43,0,0,1,0,36.85,17.32,17.32,0,0,1-10-3Z"></path> <line class="cls-9" x1="219.61" y1="168.06" x2="219.61" y2="199.01"></line> <line class="cls-9" x1="177.59" y1="168.06" x2="177.59" y2="199.01"></line> <line class="cls-9" x1="219.67" y1="168.24" x2="177.45" y2="168.24"></line> <line class="cls-9" x1="219.67" y1="178.47" x2="177.45" y2="178.47"></line> <line class="cls-9" x1="219.67" y1="188.7" x2="177.45" y2="188.7"></line> <line class="cls-9" x1="219.67" y1="198.92" x2="177.45" y2="198.92"></line> <polyline class="cls-10" points="182.45 193.77 189.27 175.44 197.56 185.24 203.85 174.47 210.66 175.28 216.65 171.02"></polyline> <rect class="cls-1" x="334.07" y="76.55" width="26.42" height="5.43"></rect> <rect class="cls-1" x="334.07" y="84.2" width="3.83" height="5.43"></rect> <rect class="cls-1" x="334.07" y="91.84" width="13.21" height="5.43"></rect> <rect class="cls-1" x="334.07" y="99.49" width="15.84" height="5.43"></rect> <rect class="cls-8" x="321.97" y="76.55" width="8.4" height="5.43"></rect> <rect class="cls-8" x="304.06" y="84.2" width="26.32" height="5.43"></rect> <rect class="cls-8" x="318.76" y="91.84" width="11.62" height="5.43"></rect> <rect class="cls-8" x="308.98" y="99.49" width="21.4" height="5.43"></rect> <line class="cls-9" x1="330.49" y1="72.99" x2="330.49" y2="106.9"></line> <line class="cls-9" x1="304.18" y1="72.99" x2="304.18" y2="74.41"></line> <line class="cls-9" x1="312.99" y1="72.99" x2="312.99" y2="74.41"></line> <line class="cls-9" x1="321.8" y1="72.99" x2="321.8" y2="74.41"></line> <line class="cls-9" x1="330.61" y1="73.13" x2="304.06" y2="73.13"></line> <line class="cls-9" x1="333.94" y1="72.99" x2="333.94" y2="106.9"></line> <line class="cls-9" x1="360.37" y1="72.99" x2="360.37" y2="74.41"></line> <line class="cls-9" x1="351.56" y1="72.99" x2="351.56" y2="74.41"></line> <line class="cls-9" x1="342.75" y1="72.99" x2="342.75" y2="74.41"></line> <line class="cls-9" x1="333.94" y1="73.13" x2="360.49" y2="73.13"></line> <path class="cls-8" d="M310.68,218.79a1.19,1.19,0,1,0-1.19-1.19,1.19,1.19,0,0,0,1.19,1.19"></path> <path class="cls-8" d="M314,221.31a1.19,1.19,0,1,0-1.19-1.19,1.19,1.19,0,0,0,1.19,1.19"></path> <path class="cls-8" d="M322.9,217.09a1.19,1.19,0,1,0-1.19-1.19,1.19,1.19,0,0,0,1.19,1.19"></path> <path class="cls-8" d="M322.9,222.22a1.19,1.19,0,1,0-1.19-1.19,1.19,1.19,0,0,0,1.19,1.19"></path> <path class="cls-8" d="M326.23,229.72a1.19,1.19,0,1,0-1.19-1.19,1.19,1.19,0,0,0,1.19,1.19"></path> <path class="cls-8" d="M329.49,237.58a1.19,1.19,0,1,0-1.19-1.19,1.19,1.19,0,0,0,1.19,1.19"></path> <path class="cls-8" d="M337,231.66a1.19,1.19,0,1,0-1.19-1.19,1.19,1.19,0,0,0,1.19,1.19"></path> <path class="cls-8" d="M332.78,227.45a1.19,1.19,0,1,0-1.19-1.19,1.19,1.19,0,0,0,1.19,1.19"></path> <path class="cls-8" d="M334.81,224.74a1.19,1.19,0,1,0-1.19-1.19,1.19,1.19,0,0,0,1.19,1.19"></path> <path class="cls-8" d="M345,239.79a1.19,1.19,0,1,0-1.19-1.19,1.19,1.19,0,0,0,1.19,1.19"></path> <path class="cls-8" d="M353.21,239.11a1.19,1.19,0,1,0,0-2.38,1.19,1.19,0,1,0,0,2.38"></path> <path class="cls-9" d="M308.45,209.24s13.35,15.94,22.13,21.48a126.49,126.49,0,0,0,26.18,12.14"></path> <line class="cls-9" x1="290.43" y1="198.92" x2="239.41" y2="198.92"></line> <path class="cls-10" d="M242.25,194c.08.06,4.37,3.13,7.05,2.68,4.54-.77,10.1-28,15.62-28s11.55,27.1,16.23,28c2.42.44,7.45-1.82,7.45-1.82"></path> </svg> 